<?xml version="1.0" encoding="utf-8"?>
<!-- Generator: Adobe Illustrator 17.0.0, SVG Export Plug-In . SVG Version: 6.00 Build 0)  -->
<!DOCTYPE svg PUBLIC "-//W3C//DTD SVG 1.1//EN" "http://www.w3.org/Graphics/SVG/1.1/DTD/svg11.dtd">
<svg version="1.1" id="Layer_1" xmlns="http://www.w3.org/2000/svg" xmlns:xlink="http://www.w3.org/1999/xlink" x="0px" y="0px"
	 width="220px" height="580px" viewBox="0 0 220 580" enable-background="new 0 0 220 580" xml:space="preserve">
<g opacity="0.1">
	<polygon fill="#697275" points="52.842,147.249 159.165,88.242 159.165,147.249 159.165,278.94 369.246,278.94 369.246,225.22 
		369.246,166.213 475.569,225.22 475.569,278.94 529.085,278.94 529.085,126.699 264.517,-25.5 0,126.699 0,278.94 52.842,278.94 	
		"/>
	<polygon fill="#697275" points="264.525,605.5 529.051,453.258 529.051,301.06 475.527,301.06 475.527,427.183 264.525,546.638 
		52.859,427.183 52.859,301.06 0.009,301.06 0.009,453.258 	"/>
	<polygon fill="#697275" points="264.525,487.529 369.254,427.174 369.254,301.051 159.123,301.051 159.123,427.174 	"/>
</g>
</svg>
