<?xml version="1.0" encoding="utf-8"?>
<!-- Generator: Adobe Illustrator 17.0.0, SVG Export Plug-In . SVG Version: 6.00 Build 0)  -->
<!DOCTYPE svg PUBLIC "-//W3C//DTD SVG 1.1//EN" "http://www.w3.org/Graphics/SVG/1.1/DTD/svg11.dtd">
<svg version="1.1" id="Layer_1" xmlns="http://www.w3.org/2000/svg" xmlns:xlink="http://www.w3.org/1999/xlink" x="0px" y="0px"
	 width="13px" height="10px" viewBox="0 0 13 10" enable-background="new 0 0 13 10" xml:space="preserve">
<path fill="#FFFFFF" d="M0.65,5.624h10.131L7.34,8.933c-0.254,0.244-0.254,0.64,0,0.884c0.254,0.245,0.665,0.245,0.919,0l4.55-4.375
	c0.254-0.244,0.254-0.639,0-0.883L8.26,0.184C8.133,0.061,7.967,0,7.8,0C7.634,0,7.467,0.061,7.34,0.184
	c-0.254,0.243-0.254,0.639,0,0.883l3.44,3.307H0.65C0.291,4.375,0,4.655,0,5C0,5.344,0.291,5.624,0.65,5.624z"/>
</svg>
