<?xml version="1.0" encoding="utf-8"?>
<!-- Generator: Adobe Illustrator 17.0.0, SVG Export Plug-In . SVG Version: 6.00 Build 0)  -->
<!DOCTYPE svg PUBLIC "-//W3C//DTD SVG 1.1//EN" "http://www.w3.org/Graphics/SVG/1.1/DTD/svg11.dtd">
<svg version="1.1" id="Layer_1" xmlns="http://www.w3.org/2000/svg" xmlns:xlink="http://www.w3.org/1999/xlink" x="0px" y="0px"
	 width="20px" height="29px" viewBox="0 0 20 29" enable-background="new 0 0 20 29" xml:space="preserve">
<path fill="#397DC0" d="M17.071,2.968c-3.905-3.957-10.237-3.957-14.143,0C-0.59,6.535-0.986,13.254,2.001,17.29l8,11.71l8-11.71
	C20.985,13.254,20.59,6.535,17.071,2.968L17.071,2.968z M10.098,13.385c-1.824,0-3.302-1.498-3.302-3.347
	c0-1.847,1.477-3.347,3.302-3.347c1.824,0,3.301,1.5,3.301,3.347C13.399,11.887,11.922,13.385,10.098,13.385L10.098,13.385z
	 M10.098,13.385"/>
</svg>
