<?xml version="1.0" encoding="utf-8"?>
<!-- Generator: Adobe Illustrator 16.0.0, SVG Export Plug-In . SVG Version: 6.00 Build 0)  -->
<!DOCTYPE svg PUBLIC "-//W3C//DTD SVG 1.1//EN" "http://www.w3.org/Graphics/SVG/1.1/DTD/svg11.dtd">
<svg version="1.1" id="Layer_1" xmlns="http://www.w3.org/2000/svg" xmlns:xlink="http://www.w3.org/1999/xlink" x="0px" y="0px"
	 width="30px" height="30px" viewBox="0 0 30 30" enable-background="new 0 0 30 30" xml:space="preserve">
<path fill="#FFFFFF" d="M25.606,4.392c-5.858-5.86-15.352-5.86-21.212,0c-5.642,5.642-5.849,14.65-0.633,20.54l0.148,0.129
	c-0.564,1.229-1.544,2.731-3.088,3.494c-0.515,0.246-0.396,1.01,0.168,1.098c1.692,0.269,4.118-0.027,6.374-1.74l0.03,0.027
	c5.751,3.387,13.265,2.604,18.203-2.336C31.466,19.744,31.466,10.252,25.606,4.392z M23.188,21.658
	c-0.248,0.385-0.596,0.734-0.967,1.003c-1.162,0.834-2.455,1.21-3.873,0.813c-0.943-0.267-1.873-0.59-2.799-0.916
	c-2.136-0.754-3.896-2.072-5.445-3.693c-1.269-1.327-2.379-2.778-3.278-4.379c-0.743-1.321-1.096-2.734-0.761-4.254
	c0.238-1.074,0.818-1.948,1.654-2.645c0.393-0.328,0.882-0.36,1.369-0.29c0.17,0,0.333-0.005,0.496,0.001
	c0.276,0.011,0.519,0.098,0.643,0.365c0.223,0.479,0.441,0.961,0.65,1.447c0.293,0.681,0.554,1.376,0.869,2.047
	c0.214,0.456,0.125,0.85-0.144,1.218c-0.294,0.403-0.621,0.785-0.944,1.167c-0.251,0.296-0.291,0.559-0.086,0.891
	c1.141,1.853,2.593,3.392,4.533,4.422c0.483,0.258,0.987,0.48,1.493,0.693c0.385,0.16,0.602,0.09,0.863-0.232
	c0.434-0.528,0.863-1.061,1.293-1.592c0.295-0.367,0.529-0.455,0.957-0.256c1.189,0.547,2.367,1.117,3.553,1.674
	c0.273,0.129,0.379,0.336,0.367,0.625C23.607,20.43,23.551,21.1,23.188,21.658z"/>
</svg>
